<?xml version="1.0" encoding="UTF-8" standalone="no"?>
<svg
   viewBox="0 0 24 24"
   version="1.1"
   id="svg4"
   sodipodi:docname="cart-arrow-up.svg"
   inkscape:export-filename="C:\Users\marcin\Desktop\icon-dark-16.png"
   inkscape:export-xdpi="64"
   inkscape:export-ydpi="64"
   inkscape:version="1.1.1 (3bf5ae0d25, 2021-09-20)"
   xmlns:inkscape="http://www.inkscape.org/namespaces/inkscape"
   xmlns:sodipodi="http://sodipodi.sourceforge.net/DTD/sodipodi-0.dtd"
   xmlns="http://www.w3.org/2000/svg"
   xmlns:svg="http://www.w3.org/2000/svg">
  <defs
     id="defs8" />
  <sodipodi:namedview
     id="namedview6"
     pagecolor="#505050"
     bordercolor="#eeeeee"
     borderopacity="1"
     inkscape:pageshadow="0"
     inkscape:pageopacity="0"
     inkscape:pagecheckerboard="0"
     showgrid="false"
     inkscape:zoom="8.625"
     inkscape:cx="3.7101449"
     inkscape:cy="-7.942029"
     inkscape:window-width="1920"
     inkscape:window-height="1012"
     inkscape:window-x="-8"
     inkscape:window-y="-8"
     inkscape:window-maximized="1"
     inkscape:current-layer="svg4" />
  <path
     d="M12 0L8 4H10V8H14V4H16M1 2V4H3L6.6 11.6L5.2 14C5.1 14.3 5 14.6 5 15C5 16.1 5.9 17 7 17H19V15H7.4C7.3 15 7.2 14.9 7.2 14.8V14.7L8.1 13H15.5C16.2 13 16.9 12.6 17.2 12L21.1 5L19.4 4L15.5 11H8.5L4.3 2M7 18C5.9 18 5 18.9 5 20S5.9 22 7 22 9 21.1 9 20 8.1 18 7 18M17 18C15.9 18 15 18.9 15 20S15.9 22 17 22 19 21.1 19 20 18.1 18 17 18Z"
     id="path2"
     style="fill:#ff5a00" />
</svg>
