<?xml version="1.0" encoding="UTF-8" standalone="no"?>
<svg
   viewBox="0 0 24 24"
   version="1.1"
   id="svg4"
   sodipodi:docname="cart-arrow-down.svg"
   inkscape:export-filename="C:\Users\marcin\Desktop\icon-dark-16.png"
   inkscape:export-xdpi="64"
   inkscape:export-ydpi="64"
   inkscape:version="1.1.1 (3bf5ae0d25, 2021-09-20)"
   xmlns:inkscape="http://www.inkscape.org/namespaces/inkscape"
   xmlns:sodipodi="http://sodipodi.sourceforge.net/DTD/sodipodi-0.dtd"
   xmlns="http://www.w3.org/2000/svg"
   xmlns:svg="http://www.w3.org/2000/svg">
  <defs
     id="defs8" />
  <sodipodi:namedview
     id="namedview6"
     pagecolor="#505050"
     bordercolor="#eeeeee"
     borderopacity="1"
     inkscape:pageshadow="0"
     inkscape:pageopacity="0"
     inkscape:pagecheckerboard="0"
     showgrid="false"
     inkscape:zoom="8.625"
     inkscape:cx="3.7101449"
     inkscape:cy="-7.942029"
     inkscape:window-width="1920"
     inkscape:window-height="1012"
     inkscape:window-x="-8"
     inkscape:window-y="-8"
     inkscape:window-maximized="1"
     inkscape:current-layer="svg4" />
  <path
     style="fill:#ff5a00"
     d="m 17,18 c -1.1,0 -2,0.9 -2,2 0,1.1 0.9,2 2,2 1.1,0 2,-0.9 2,-2 0,-1.1 -0.9,-2 -2,-2 z"
     id="path1741" />
  <path
     style="fill:#ff5a00"
     d="m 7,18 c -1.1,0 -2,0.9 -2,2 0,1.1 0.9,2 2,2 1.1,0 2,-0.9 2,-2 0,-1.1 -0.9,-2 -2,-2"
     id="path1739" />
  <path
     style="fill:#ff5a00"
     d="M 1,2 V 4 H 3 L 6.6,11.6 5.2,14 C 5.1,14.3 5,14.6 5,15 c 0,1.1 0.9,2 2,2 H 19 V 15 H 7.4 C 7.3,15 7.2,14.9 7.2,14.8 V 14.7 L 8.1,13 h 7.4 c 0.7,0 1.4,-0.4 1.7,-1 l 3.9,-7 -1.7,-1 -3.9,7 h -7 L 4.3,2"
     id="path1737" />
  <path
     style="fill:#ff5a00"
     d="M 12,8 8,4 h 2 V 0 h 4 v 4 h 2"
     id="path2" />
</svg>
